<svg width="192" height="192" xmlns="http://www.w3.org/2000/svg">
  <defs>
    <linearGradient id="grad" x1="0%" y1="0%" x2="100%" y2="100%">
      <stop offset="0%" style="stop-color:#60a5fa;stop-opacity:1" />
      <stop offset="100%" style="stop-color:#3b82f6;stop-opacity:1" />
    </linearGradient>
  </defs>
  <rect width="192" height="192" rx="40" fill="url(#grad)"/>
  <circle cx="96" cy="70" r="25" fill="#fbbf24"/>
  <path d="M96 45 L96 35 M96 95 L96 105 M121 70 L131 70 M61 70 L71 70 M115 55 L122 48 M70 85 L63 92 M115 85 L122 92 M70 55 L63 48" stroke="#fbbf24" stroke-width="4" stroke-linecap="round"/>
  <path d="M70 120 Q80 110 90 120 T110 120 Q120 110 130 120" stroke="#60a5fa" stroke-width="5" fill="none" stroke-linecap="round"/>
  <circle cx="75" cy="150" r="3" fill="white" opacity="0.8"/>
  <circle cx="95" cy="155" r="2.5" fill="white" opacity="0.8"/>
  <circle cx="115" cy="150" r="3" fill="white" opacity="0.8"/>
</svg>
